<?xml version="1.0" encoding="UTF-8"?>
<!DOCTYPE svg PUBLIC "-//W3C//DTD SVG 1.1//EN" "http://www.w3.org/Graphics/SVG/1.1/DTD/svg11.dtd">
<svg xmlns="http://www.w3.org/2000/svg" version="1.1" width="500px" height="500px" style="shape-rendering:geometricPrecision; text-rendering:geometricPrecision; image-rendering:optimizeQuality; fill-rule:evenodd; clip-rule:evenodd" xmlns:xlink="http://www.w3.org/1999/xlink">
<g><path style="opacity:1" fill="#000000" d="M -0.5,0.5 C 166.167,0.5 332.833,0.5 499.5,0.5C 499.5,166.833 499.5,333.167 499.5,499.5C 332.833,499.5 166.167,499.5 -0.5,499.5C -0.5,333.167 -0.5,166.833 -0.5,0.5 Z"/></g>
<g><path style="opacity:1" fill="#b79f5e" d="M 179.5,179.5 C 184.833,182.167 190.167,184.833 195.5,187.5C 195.973,188.906 196.973,189.573 198.5,189.5C 199.833,190.5 201.167,191.5 202.5,192.5C 201.5,192.5 200.5,192.5 199.5,192.5C 199.433,193.959 199.766,195.292 200.5,196.5C 193.329,192.749 186.329,188.749 179.5,184.5C 177.043,182.668 177.043,181.001 179.5,179.5 Z"/></g>
<g><path style="opacity:1" fill="#a28246" d="M 179.5,179.5 C 177.043,181.001 177.043,182.668 179.5,184.5C 176.726,183.277 174.059,181.777 171.5,180C 170.5,179.333 169.5,179.333 168.5,180C 156.472,187.681 144.138,194.848 131.5,201.5C 130.503,201.53 129.836,201.03 129.5,200C 129.978,198.697 130.645,197.531 131.5,196.5C 144.31,188.592 157.31,180.925 170.5,173.5C 173.738,175.275 176.738,177.275 179.5,179.5 Z"/></g>
<g><path style="opacity:1" fill="#544a2d" d="M 195.5,187.5 C 197.027,187.427 198.027,188.094 198.5,189.5C 196.973,189.573 195.973,188.906 195.5,187.5 Z"/></g>
<g><path style="opacity:1" fill="#705429" d="M 159.5,188.5 C 159.5,189.167 159.833,189.5 160.5,189.5C 145.433,199.368 129.933,208.701 114,217.5C 113.333,239.833 113.333,262.167 114,284.5C 124.076,290.762 134.243,296.762 144.5,302.5C 143.508,302.328 142.842,302.662 142.5,303.5C 132.527,297.845 122.527,292.179 112.5,286.5C 111.334,263.174 111.167,239.84 112,216.5C 127.779,207.029 143.612,197.696 159.5,188.5 Z"/></g>
<g><path style="opacity:1" fill="#49442c" d="M 227.5,205.5 C 229.027,205.427 230.027,206.094 230.5,207.5C 228.973,207.573 227.973,206.906 227.5,205.5 Z"/></g>
<g><path style="opacity:1" fill="#918351" d="M 202.5,202.5 C 202.842,201.662 203.508,201.328 204.5,201.5C 213.366,205.76 221.7,210.76 229.5,216.5C 228.279,217.465 226.946,217.298 225.5,216C 217.806,211.488 210.139,206.988 202.5,202.5 Z"/></g>
<g><path style="opacity:1" fill="#ccbc77" d="M 202.5,192.5 C 210.676,197.088 219.009,201.422 227.5,205.5C 227.973,206.906 228.973,207.573 230.5,207.5C 232.435,208.81 234.435,210.143 236.5,211.5C 235.012,213.577 233.012,214.577 230.5,214.5C 220.5,208.5 210.5,202.5 200.5,196.5C 199.766,195.292 199.433,193.959 199.5,192.5C 200.5,192.5 201.5,192.5 202.5,192.5 Z"/></g>
<g><path style="opacity:1" fill="#88632e" d="M 131.5,196.5 C 130.645,197.531 129.978,198.697 129.5,200C 129.836,201.03 130.503,201.53 131.5,201.5C 124.148,206.267 116.648,210.934 109,215.5C 108.501,219.821 108.334,224.154 108.5,228.5C 107.678,230.389 106.845,232.389 106,234.5C 105.5,253.164 105.333,271.83 105.5,290.5C 104.167,277.851 103.501,264.851 103.5,251.5C 103.667,238.5 103.833,225.5 104,212.5C 113.14,207.017 122.306,201.684 131.5,196.5 Z"/></g>
<g><path style="opacity:1" fill="#714f23" d="M 171.5,216.5 C 173.213,217.635 173.88,219.302 173.5,221.5C 172.5,221.5 171.5,221.5 170.5,221.5C 170.366,219.708 170.699,218.042 171.5,216.5 Z"/></g>
<g><path style="opacity:1" fill="#775122" d="M 157.5,220.5 C 159.384,220.712 160.717,221.712 161.5,223.5C 158.936,224.564 157.603,223.564 157.5,220.5 Z"/></g>
<g><path style="opacity:1" fill="#7e5a29" d="M 184.5,220.5 C 186.838,221.648 186.671,222.982 184,224.5C 183.5,224.167 183,223.833 182.5,223.5C 183.193,222.482 183.859,221.482 184.5,220.5 Z"/></g>
<g><path style="opacity:1" fill="#825724" d="M 225.5,229.5 C 232.332,228.197 238.165,229.864 243,234.5C 243.667,238.5 243.667,242.5 243,246.5C 242.5,247 242,247.5 241.5,248C 236.177,248.499 230.844,248.666 225.5,248.5C 225.5,242.167 225.5,235.833 225.5,229.5 Z"/></g>
<g><path style="opacity:1" fill="#926b33" d="M 289.5,248.5 C 289.5,243.833 289.5,239.167 289.5,234.5C 291.296,233.207 292.963,231.707 294.5,230C 298.486,229.501 302.486,229.334 306.5,229.5C 306.5,235.833 306.5,242.167 306.5,248.5C 305.167,248.5 303.833,248.5 302.5,248.5C 302.5,246.5 302.5,244.5 302.5,242.5C 299.5,242.5 296.5,242.5 293.5,242.5C 293.5,244.5 293.5,246.5 293.5,248.5C 292.167,248.5 290.833,248.5 289.5,248.5 Z"/></g>
<g><path style="opacity:1" fill="#916c35" d="M 314.5,238.5 C 314.631,237.624 314.298,236.957 313.5,236.5C 312.509,240.445 312.176,244.445 312.5,248.5C 311.167,248.5 309.833,248.5 308.5,248.5C 308.5,242.167 308.5,235.833 308.5,229.5C 310.199,229.34 311.866,229.506 313.5,230C 316.358,233.358 319.025,236.858 321.5,240.5C 322.489,236.893 322.823,233.226 322.5,229.5C 323.833,229.5 325.167,229.5 326.5,229.5C 326.5,235.833 326.5,242.167 326.5,248.5C 324.712,248.785 323.045,248.452 321.5,247.5C 319.388,244.25 317.055,241.25 314.5,238.5 Z"/></g>
<g><path style="opacity:1" fill="#9a753b" d="M 330.5,229.5 C 335.927,229.218 341.26,229.551 346.5,230.5C 346.5,232.167 346.5,233.833 346.5,235.5C 341.972,234.063 337.306,233.396 332.5,233.5C 332.5,234.5 332.5,235.5 332.5,236.5C 336.514,236.334 340.514,236.501 344.5,237C 345,237.5 345.5,238 346,238.5C 346.498,241.482 346.665,244.482 346.5,247.5C 341.218,248.567 335.885,248.733 330.5,248C 328.808,246.599 328.141,244.766 328.5,242.5C 333.028,243.937 337.694,244.604 342.5,244.5C 342.5,243.167 342.5,241.833 342.5,240.5C 337.968,240.818 333.634,240.485 329.5,239.5C 329.342,236.098 329.676,232.764 330.5,229.5 Z"/></g>
<g><path style="opacity:1" fill="#9e7b40" d="M 348.5,229.5 C 349.833,229.5 351.167,229.5 352.5,229.5C 352.5,231.833 352.5,234.167 352.5,236.5C 355.833,236.5 359.167,236.5 362.5,236.5C 362.5,234.167 362.5,231.833 362.5,229.5C 363.5,229.5 364.5,229.5 365.5,229.5C 365.829,235.537 365.496,241.537 364.5,247.5C 363.832,245.031 363.165,242.698 362.5,240.5C 359.167,240.5 355.833,240.5 352.5,240.5C 352.5,243.167 352.5,245.833 352.5,248.5C 351.167,248.5 349.833,248.5 348.5,248.5C 348.5,242.167 348.5,235.833 348.5,229.5 Z"/></g>
<g><path style="opacity:1" fill="#7e6334" d="M 365.5,229.5 C 366.49,235.645 366.823,241.978 366.5,248.5C 365.167,248.5 363.833,248.5 362.5,248.5C 362.5,245.833 362.5,243.167 362.5,240.5C 363.165,242.698 363.832,245.031 364.5,247.5C 365.496,241.537 365.829,235.537 365.5,229.5 Z"/></g>
<g><path style="opacity:1" fill="#9c7c42" d="M 372.5,229.5 C 372.5,234.5 372.5,239.5 372.5,244.5C 375.833,244.5 379.167,244.5 382.5,244.5C 382.5,239.5 382.5,234.5 382.5,229.5C 383.833,229.5 385.167,229.5 386.5,229.5C 386.829,235.537 386.496,241.537 385.5,247.5C 380.167,248.833 374.833,248.833 369.5,247.5C 368.504,241.537 368.171,235.537 368.5,229.5C 369.833,229.5 371.167,229.5 372.5,229.5 Z"/></g>
<g><path style="opacity:1" fill="#8a5d26" d="M 148.5,230.5 C 151.097,230.533 152.097,231.533 151.5,233.5C 149.787,233.121 148.787,232.121 148.5,230.5 Z"/></g>
<g><path style="opacity:1" fill="#89642f" d="M 192.5,230.5 C 197.506,230.566 197.506,231.566 192.5,233.5C 191.438,232.575 191.438,231.575 192.5,230.5 Z"/></g>
<g><path style="opacity:1" fill="#5f4824" d="M 330.5,229.5 C 329.676,232.764 329.342,236.098 329.5,239.5C 328.362,236.696 328.195,233.696 329,230.5C 329.383,229.944 329.883,229.611 330.5,229.5 Z"/></g>
<g><path style="opacity:1" fill="#070401" d="M 229.5,233.5 C 237.156,233.167 240.156,236.833 238.5,244.5C 235.5,244.5 232.5,244.5 229.5,244.5C 229.5,240.833 229.5,237.167 229.5,233.5 Z"/></g>
<g><path style="opacity:1" fill="#0e0903" d="M 296.5,233.5 C 298.5,233.5 300.5,233.5 302.5,233.5C 302.5,235.167 302.5,236.833 302.5,238.5C 299.5,238.5 296.5,238.5 293.5,238.5C 293.721,236.336 294.721,234.67 296.5,233.5 Z"/></g>
<g><path style="opacity:1" fill="#6e4b20" d="M 246.5,229.5 C 247.167,253.5 247.833,253.5 248.5,229.5C 249.49,235.645 249.823,241.978 249.5,248.5C 248.167,248.5 246.833,248.5 245.5,248.5C 245.177,241.978 245.51,235.645 246.5,229.5 Z"/></g>
<g><path style="opacity:1" fill="#815a27" d="M 251.5,229.5 C 252.833,229.5 254.167,229.5 255.5,229.5C 255.334,233.514 255.501,237.514 256,241.5C 258.667,245.5 261.333,245.5 264,241.5C 264.499,237.514 264.666,233.514 264.5,229.5C 266.167,229.5 267.833,229.5 269.5,229.5C 270.914,237.005 268.914,243.171 263.5,248C 258.467,249.567 254.633,248.067 252,243.5C 251.501,238.845 251.334,234.179 251.5,229.5 Z"/></g>
<g><path style="opacity:1" fill="#8a622d" d="M 287.5,229.5 C 287.5,232.167 287.5,234.833 287.5,237.5C 282.432,239.32 280.432,242.987 281.5,248.5C 280.167,248.5 278.833,248.5 277.5,248.5C 277.813,245.753 277.48,243.086 276.5,240.5C 271.139,238.712 269.139,235.046 270.5,229.5C 271.833,229.5 273.167,229.5 274.5,229.5C 273.795,233.777 275.462,236.443 279.5,237.5C 281.029,237.471 282.196,236.804 283,235.5C 283.495,233.527 283.662,231.527 283.5,229.5C 284.833,229.5 286.167,229.5 287.5,229.5 Z"/></g>
<g><path style="opacity:1" fill="#191309" d="M 348.5,229.5 C 348.5,235.833 348.5,242.167 348.5,248.5C 347.833,248.167 347.167,247.833 346.5,247.5C 346.665,244.482 346.498,241.482 346,238.5C 345.5,238 345,237.5 344.5,237C 340.514,236.501 336.514,236.334 332.5,236.5C 332.5,235.5 332.5,234.5 332.5,233.5C 337.306,233.396 341.972,234.063 346.5,235.5C 346.5,233.833 346.5,232.167 346.5,230.5C 347.167,230.167 347.833,229.833 348.5,229.5 Z"/></g>
<g><path style="opacity:1" fill="#2c2213" d="M 352.5,229.5 C 353.461,231.265 353.795,233.265 353.5,235.5C 356.167,235.5 358.833,235.5 361.5,235.5C 361.205,233.265 361.539,231.265 362.5,229.5C 362.5,231.833 362.5,234.167 362.5,236.5C 359.167,236.5 355.833,236.5 352.5,236.5C 352.5,234.167 352.5,231.833 352.5,229.5 Z"/></g>
<g><path style="opacity:1" fill="#443117" d="M 287.5,229.5 C 288.167,231.167 288.833,232.833 289.5,234.5C 289.5,239.167 289.5,243.833 289.5,248.5C 288.833,244.833 288.167,241.167 287.5,237.5C 287.5,234.833 287.5,232.167 287.5,229.5 Z"/></g>
<g><path style="opacity:1" fill="#423218" d="M 314.5,238.5 C 313.833,241.833 313.167,245.167 312.5,248.5C 312.176,244.445 312.509,240.445 313.5,236.5C 314.298,236.957 314.631,237.624 314.5,238.5 Z"/></g>
<g><path style="opacity:1" fill="#94662b" d="M 246.5,229.5 C 247.167,229.5 247.833,229.5 248.5,229.5C 247.833,253.5 247.167,253.5 246.5,229.5 Z"/></g>
<g><path style="opacity:1" fill="#8c5e26" d="M 144.5,243.5 C 146.199,243.34 147.866,243.506 149.5,244C 147.415,246.139 145.749,245.972 144.5,243.5 Z"/></g>
<g><path style="opacity:1" fill="#2f2514" d="M 372.5,229.5 C 373.486,233.97 373.819,238.637 373.5,243.5C 376.167,243.5 378.833,243.5 381.5,243.5C 381.181,238.637 381.514,233.97 382.5,229.5C 382.5,234.5 382.5,239.5 382.5,244.5C 379.167,244.5 375.833,244.5 372.5,244.5C 372.5,239.5 372.5,234.5 372.5,229.5 Z"/></g>
<g><path style="opacity:1" fill="#83612e" d="M 194.5,243.5 C 196.288,243.215 197.955,243.548 199.5,244.5C 198.667,244.833 197.833,245.167 197,245.5C 195.624,245.316 194.791,244.649 194.5,243.5 Z"/></g>
<g><path style="opacity:1" fill="#6e4a1e" d="M 226.5,253.5 C 226.5,259.5 226.5,265.5 226.5,271.5C 231.5,271.5 236.5,271.5 241.5,271.5C 236.36,272.488 231.026,272.821 225.5,272.5C 225.177,265.978 225.51,259.645 226.5,253.5 Z"/></g>
<g><path style="opacity:1" fill="#865b26" d="M 226.5,253.5 C 233.016,252.237 238.516,253.904 243,258.5C 243.667,262.5 243.667,266.5 243,270.5C 242.617,271.056 242.117,271.389 241.5,271.5C 236.5,271.5 231.5,271.5 226.5,271.5C 226.5,265.5 226.5,259.5 226.5,253.5 Z"/></g>
<g><path style="opacity:1" fill="#906932" d="M 300.5,253.5 C 300.5,254.5 300.5,255.5 300.5,256.5C 296.5,256.5 292.5,256.5 288.5,256.5C 288.232,258.099 288.566,259.432 289.5,260.5C 293.167,260.5 296.833,260.5 300.5,260.5C 300.5,261.833 300.5,263.167 300.5,264.5C 296.833,264.5 293.167,264.5 289.5,264.5C 289.5,265.833 289.5,267.167 289.5,268.5C 293.5,268.5 297.5,268.5 301.5,268.5C 301.5,269.833 301.5,271.167 301.5,272.5C 295.833,272.5 290.167,272.5 284.5,272.5C 284.5,266.167 284.5,259.833 284.5,253.5C 289.833,253.5 295.167,253.5 300.5,253.5 Z"/></g>
<g><path style="opacity:1" fill="#89602a" d="M 245.5,253.5 C 246.833,253.5 248.167,253.5 249.5,253.5C 249.5,258.5 249.5,263.5 249.5,268.5C 252.5,268.5 255.5,268.5 258.5,268.5C 258.5,263.5 258.5,258.5 258.5,253.5C 259.833,253.5 261.167,253.5 262.5,253.5C 262.666,259.509 262.499,265.509 262,271.5C 256.667,272.833 251.333,272.833 246,271.5C 245.501,265.509 245.334,259.509 245.5,253.5 Z"/></g>
<g><path style="opacity:1" fill="#815825" d="M 149.5,255.5 C 150.675,255.281 151.675,255.614 152.5,256.5C 151.131,258.124 149.464,258.624 147.5,258C 148.381,257.292 149.047,256.458 149.5,255.5 Z"/></g>
<g><path style="opacity:1" fill="#966f35" d="M 191.5,255.5 C 194.462,255.117 195.462,256.117 194.5,258.5C 192.787,258.121 191.787,257.121 191.5,255.5 Z"/></g>
<g><path style="opacity:1" fill="#725328" d="M 300.5,253.5 C 301.434,254.568 301.768,255.901 301.5,257.5C 297.5,257.5 293.5,257.5 289.5,257.5C 289.5,258.5 289.5,259.5 289.5,260.5C 288.566,259.432 288.232,258.099 288.5,256.5C 292.5,256.5 296.5,256.5 300.5,256.5C 300.5,255.5 300.5,254.5 300.5,253.5 Z"/></g>
<g><path style="opacity:1" fill="#070401" d="M 229.5,257.5 C 237.156,257.167 240.156,260.833 238.5,268.5C 235.5,268.5 232.5,268.5 229.5,268.5C 229.5,264.833 229.5,261.167 229.5,257.5 Z"/></g>
<g><path style="opacity:1" fill="#8d6a34" d="M 303.5,253.5 C 304.833,253.5 306.167,253.5 307.5,253.5C 306.788,260.458 309.454,262.458 315.5,259.5C 316.466,257.604 316.799,255.604 316.5,253.5C 317.833,253.5 319.167,253.5 320.5,253.5C 321.47,258.704 319.637,262.371 315,264.5C 314.503,267.146 314.336,269.813 314.5,272.5C 312.833,272.5 311.167,272.5 309.5,272.5C 310.766,267.309 309.099,263.642 304.5,261.5C 303.52,258.914 303.187,256.247 303.5,253.5 Z"/></g>
<g><path style="opacity:1" fill="#8c642e" d="M 264.5,253.5 C 270.176,253.334 275.843,253.501 281.5,254C 282.108,255.231 282.441,256.564 282.5,258C 282.413,262.667 282.08,267.334 281.5,272C 275.843,272.499 270.176,272.666 264.5,272.5C 264.5,266.167 264.5,259.833 264.5,253.5 Z"/></g>
<g><path style="opacity:1" fill="#0d0803" d="M 269.5,257.5 C 272.5,257.5 275.5,257.5 278.5,257.5C 278.5,258.5 278.5,259.5 278.5,260.5C 275.5,260.5 272.5,260.5 269.5,260.5C 269.5,259.5 269.5,258.5 269.5,257.5 Z"/></g>
<g><path style="opacity:1" fill="#86602c" d="M 166.5,223.5 C 186.04,222.87 194.54,232.204 192,251.5C 189.591,257.329 185.591,261.663 180,264.5C 179.517,265.448 179.351,266.448 179.5,267.5C 180.5,267.5 181.5,267.5 182.5,267.5C 181.743,272.84 179.91,277.84 177,282.5C 174.263,283.61 171.429,283.777 168.5,283C 167.12,281.075 165.62,279.241 164,277.5C 163.619,274.959 162.786,272.626 161.5,270.5C 162.704,268.526 163.537,266.526 164,264.5C 152.474,257.934 148.808,248.268 153,235.5C 156.225,229.986 160.725,225.986 166.5,223.5 Z"/></g>
<g><path style="opacity:1" fill="#0a0602" d="M 167.5,225.5 C 186.736,226.553 193.569,236.219 188,254.5C 184.965,257.87 181.632,260.87 178,263.5C 177.517,264.448 177.351,265.448 177.5,266.5C 176.167,266.5 174.833,266.5 173.5,266.5C 173.297,264.61 173.963,263.11 175.5,262C 175,261.5 174.5,261 174,260.5C 172.667,261.833 171.333,261.833 170,260.5C 169.82,262.488 169.986,264.488 170.5,266.5C 169.167,266.5 167.833,266.5 166.5,266.5C 166.649,265.448 166.483,264.448 166,263.5C 153.669,256.159 150.669,246.159 157,233.5C 159.94,229.963 163.44,227.297 167.5,225.5 Z"/></g>
<g><path style="opacity:1" fill="#845d2a" d="M 166.5,229.5 C 170.24,229.241 173.906,229.574 177.5,230.5C 179.091,232.633 181.091,234.299 183.5,235.5C 184.149,237.624 184.983,239.624 186,241.5C 185.333,244.5 185.333,247.5 186,250.5C 176.538,262.442 167.205,262.442 158,250.5C 157.994,248.191 157.828,246.025 157.5,244C 158.836,241.322 159.67,238.489 160,235.5C 161.171,234.107 162.671,233.273 164.5,233C 165.305,231.887 165.972,230.721 166.5,229.5 Z"/></g>
<g><path style="opacity:1" fill="#090502" d="M 166.5,235.5 C 166.511,233.983 167.177,232.816 168.5,232C 170.833,232.667 173.167,232.667 175.5,232C 177.825,233.822 178.158,235.989 176.5,238.5C 176.556,239.737 177.056,240.737 178,241.5C 178.346,239.782 178.846,238.115 179.5,236.5C 180.274,235.289 181.107,235.289 182,236.5C 183.29,241.11 183.624,245.777 183,250.5C 182.667,250.833 182.333,251.167 182,251.5C 182.107,248.443 180.94,246.109 178.5,244.5C 178.167,244.833 177.833,245.167 177.5,245.5C 177.946,248.276 178.946,250.776 180.5,253C 177.765,254.915 174.765,256.082 171.5,256.5C 170.978,249.864 170.145,249.864 169,256.5C 167.89,254.963 166.39,254.297 164.5,254.5C 164.691,251.015 165.691,247.849 167.5,245C 163.323,244.858 161.489,247.025 162,251.5C 160.923,249.884 160.423,248.051 160.5,246C 160.741,242.793 161.241,239.626 162,236.5C 163.356,235.62 164.856,235.286 166.5,235.5 Z"/></g>
<g><path style="opacity:1" fill="#795627" d="M 172.5,243.5 C 173.496,243.414 174.329,243.748 175,244.5C 175.402,245.872 175.902,247.205 176.5,248.5C 175.132,249.594 173.965,249.26 173,247.5C 172.51,246.207 172.343,244.873 172.5,243.5 Z"/></g>
<g><path style="opacity:1" fill="#845c28" d="M 163.5,239.5 C 165.288,239.215 166.955,239.548 168.5,240.5C 167.667,240.833 166.833,241.167 166,241.5C 164.624,241.316 163.791,240.649 163.5,239.5 Z"/></g>
<g><path style="opacity:1" fill="#825b28" d="M 166.5,235.5 C 172.224,234.506 172.557,235.172 167.5,237.5C 166.702,237.043 166.369,236.376 166.5,235.5 Z"/></g>
<g><path style="opacity:1" fill="#0c0702" d="M 269.5,264.5 C 272.5,264.5 275.5,264.5 278.5,264.5C 278.5,265.833 278.5,267.167 278.5,268.5C 275.5,268.5 272.5,268.5 269.5,268.5C 269.5,267.167 269.5,265.833 269.5,264.5 Z"/></g>
<g><path style="opacity:1" fill="#140e06" d="M 164.5,268.5 C 169.511,268.334 174.511,268.501 179.5,269C 179.957,269.414 180.291,269.914 180.5,270.5C 174.833,271.833 169.167,271.833 163.5,270.5C 163.863,269.817 164.196,269.15 164.5,268.5 Z"/></g>
<g><path style="opacity:1" fill="#9f793d" d="M 108.5,228.5 C 108.27,248.186 108.77,267.853 110,287.5C 114.981,290.4 119.815,293.4 124.5,296.5C 123.5,296.5 122.5,296.5 121.5,296.5C 121.433,297.959 121.766,299.292 122.5,300.5C 116.332,297.92 110.665,294.586 105.5,290.5C 105.333,271.83 105.5,253.164 106,234.5C 106.845,232.389 107.678,230.389 108.5,228.5 Z"/></g>
<g><path style="opacity:1" fill="#191208" d="M 166.5,273.5 C 170.703,273.076 174.703,273.576 178.5,275C 174.316,276.762 169.983,276.928 165.5,275.5C 165.863,274.817 166.196,274.15 166.5,273.5 Z"/></g>
<g><path style="opacity:1" fill="#120c04" d="M 168.5,278.5 C 170.924,278.192 173.257,278.526 175.5,279.5C 174.333,279.833 173.167,280.167 172,280.5C 170.319,280.392 169.152,279.725 168.5,278.5 Z"/></g>
<g><path style="opacity:1" fill="#dbd086" d="M 234.5,286.5 C 237.527,287.626 237.86,289.126 235.5,291C 220.505,299.498 205.505,307.998 190.5,316.5C 189.28,314.95 189.28,313.284 190.5,311.5C 202.737,304.039 215.07,296.539 227.5,289C 229.765,287.882 232.099,287.049 234.5,286.5 Z"/></g>
<g><path style="opacity:1" fill="#211d12" d="M 179.5,184.5 C 186.329,188.749 193.329,192.749 200.5,196.5C 210.5,202.5 220.5,208.5 230.5,214.5C 230.672,215.492 230.338,216.158 229.5,216.5C 221.7,210.76 213.366,205.76 204.5,201.5C 194.092,195.121 183.425,188.955 172.5,183C 167.732,183.55 163.399,185.383 159.5,188.5C 143.612,197.696 127.779,207.029 112,216.5C 111.167,239.84 111.334,263.174 112.5,286.5C 122.527,292.179 132.527,297.845 142.5,303.5C 152.016,309.092 161.683,314.425 171.5,319.5C 190.959,308.602 210.293,297.435 229.5,286C 230.252,285.329 230.586,284.496 230.5,283.5C 231.74,284.659 233.074,285.659 234.5,286.5C 232.099,287.049 229.765,287.882 227.5,289C 215.07,296.539 202.737,304.039 190.5,311.5C 184.962,313.762 179.962,316.762 175.5,320.5C 173.218,321.39 170.885,321.556 168.5,321C 153.94,312.556 139.274,304.389 124.5,296.5C 119.815,293.4 114.981,290.4 110,287.5C 108.77,267.853 108.27,248.186 108.5,228.5C 108.334,224.154 108.501,219.821 109,215.5C 116.648,210.934 124.148,206.267 131.5,201.5C 144.138,194.848 156.472,187.681 168.5,180C 169.5,179.333 170.5,179.333 171.5,180C 174.059,181.777 176.726,183.277 179.5,184.5 Z"/></g>
<g><path style="opacity:1" fill="#806b3c" d="M 204.5,201.5 C 203.508,201.328 202.842,201.662 202.5,202.5C 191.888,196.524 181.221,190.524 170.5,184.5C 167.423,186.705 164.09,188.372 160.5,189.5C 159.833,189.5 159.5,189.167 159.5,188.5C 163.399,185.383 167.732,183.55 172.5,183C 183.425,188.955 194.092,195.121 204.5,201.5 Z"/></g>
<g><path style="opacity:1" fill="#b29959" d="M 124.5,296.5 C 139.274,304.389 153.94,312.556 168.5,321C 170.885,321.556 173.218,321.39 175.5,320.5C 173.884,321.989 171.884,322.989 169.5,323.5C 168.873,324.417 168.539,325.417 168.5,326.5C 152.834,318.336 137.501,309.67 122.5,300.5C 121.766,299.292 121.433,297.959 121.5,296.5C 122.5,296.5 123.5,296.5 124.5,296.5 Z"/></g>
<g><path style="opacity:1" fill="#cab973" d="M 190.5,311.5 C 189.28,313.284 189.28,314.95 190.5,316.5C 184.248,320.377 177.914,324.377 171.5,328.5C 170.261,328.058 169.261,327.391 168.5,326.5C 168.539,325.417 168.873,324.417 169.5,323.5C 171.884,322.989 173.884,321.989 175.5,320.5C 179.962,316.762 184.962,313.762 190.5,311.5 Z"/></g>
<g><path style="opacity:1" fill="#90814f" d="M 230.5,283.5 C 230.586,284.496 230.252,285.329 229.5,286C 210.293,297.435 190.959,308.602 171.5,319.5C 161.683,314.425 152.016,309.092 142.5,303.5C 142.842,302.662 143.508,302.328 144.5,302.5C 153.634,307.234 162.634,312.234 171.5,317.5C 191.134,305.858 210.801,294.525 230.5,283.5 Z"/></g>
</svg>
